# xmcd
#
# Track frame offsets:
#	150
#	20927
#	33531
#	47849
#	67448
#	81059
#	97281
#	111166
#	122739
#	139488
#	156994
#	169809
#	185052
#	197709
#	211563
#
# Disc length: 3069 seconds
#
# Revision: 1
# Processed by: cddbd v1.5.2PL0 Copyright (c) Steve Scherf et al.
# Submitted via: audiograbber 1.83.01
#
DISCID=eb0bfb0f
DTITLE=Eden Noel - Voice and Keys
DYEAR=2009
DGENRE=Blues
TTITLE0=The Lady in red
TTITLE1=Besame mucho
TTITLE2=Summertime
TTITLE3=Angels
TTITLE4=Autumn leaves
TTITLE5=On the radio
TTITLE6=Easy
TTITLE7=Sometimes over the rainbow
TTITLE8=Hello
TTITLE9=That's what friends are for
TTITLE10=Moon river
TTITLE11=Rock with you
TTITLE12=Route 66
TTITLE13=New york new york
TTITLE14=My way
EXTD=
EXTT0=
EXTT1=
EXTT2=
EXTT3=
EXTT4=
EXTT5=
EXTT6=
EXTT7=
EXTT8=
EXTT9=
EXTT10=
EXTT11=
EXTT12=
EXTT13=
EXTT14=
PLAYORDER=
